<svg xmlns="http://www.w3.org/2000/svg" viewBox="0 0 64 64" fill="none">
  <defs>
    <filter id="glow" x="7" y="7" width="50" height="50" color-interpolation-filters="sRGB">
      <feGaussianBlur stdDeviation="1.5"/>
    </filter>
  </defs>

  <circle cx="32" cy="32" r="30" fill="#FFFFFF"/>
  <circle cx="32" cy="32" r="29.25" stroke="#D6D3D1" stroke-width="1.5"/>

  <g stroke="#8C8582" stroke-width="1.2" opacity=".9">
    <ellipse cx="32" cy="32" rx="22.5" ry="13.5"/>
    <ellipse cx="32" cy="32" rx="13" ry="22"/>
    <ellipse cx="32" cy="32" rx="22.5" ry="13.5" transform="rotate(45 32 32)"/>
    <ellipse cx="32" cy="32" rx="22.5" ry="13.5" transform="rotate(-45 32 32)"/>
    <circle cx="32" cy="32" r="8.5"/>
  </g>

  <g filter="url(#glow)" opacity=".55">
    <path d="M21 35c3-8 7-12 12-12 6 0 11 4 13 10-4 1-7 4-10 8-6-1-10-2-15-6Z" fill="#C9971F"/>
    <path d="M23 26c4 2 7 6 10 12 2-4 4-7 8-10-3-3-6-5-10-5-3 0-6 1-8 3Z" fill="#9B6A09"/>
  </g>

  <g stroke="#C9971F" stroke-width="2.2" stroke-linecap="round" stroke-linejoin="round">
    <path d="M20 35c4-8 8-12 13-12 5 0 10 4 12 10"/>
    <path d="M23 26c4 2 8 6 11 12"/>
    <path d="M26 39c4-4 8-7 13-9"/>
    <path d="M18 30c7 2 13 6 19 13"/>
    <path d="M27 22c1 6 2 11 4 18"/>
  </g>

  <g fill="#C9971F">
    <circle cx="20" cy="35" r="2.1"/>
    <circle cx="23" cy="26" r="1.8"/>
    <circle cx="27" cy="22" r="1.8"/>
    <circle cx="34" cy="38" r="1.9"/>
    <circle cx="39" cy="30" r="1.8"/>
    <circle cx="45" cy="33" r="2"/>
  </g>

  <g>
    <circle cx="17.5" cy="30" r="1.4" fill="#E85D75"/>
    <circle cx="29.5" cy="47" r="1.3" fill="#E85D75"/>
    <circle cx="47.5" cy="27.5" r="1.3" fill="#B795FF"/>
    <circle cx="41.5" cy="45.5" r="1.4" fill="#A78BFA"/>
    <circle cx="24.5" cy="15.5" r="1.2" fill="#F3F4F6"/>
  </g>
</svg>
